<svg width="117" height="116" viewBox="0 0 117 116" fill="none" xmlns="http://www.w3.org/2000/svg">
<path d="M112.412 61.1257C110.792 89.7708 87.0504 112.5 58 112.5C27.9005 112.5 3.5 88.0995 3.5 58C3.5 27.9005 27.9005 3.5 58 3.5C65.2096 3.5 72.0855 4.89814 78.3767 7.43602C75.183 15.4261 74.8727 22.7665 76.5728 29.3216C78.488 36.7054 82.8699 42.778 87.8989 47.5188C92.9282 52.2598 98.7329 55.7938 103.78 58.1087C106.308 59.2687 108.695 60.145 110.755 60.7162C111.308 60.8696 111.864 61.0084 112.412 61.1257Z" stroke="black" stroke-width="7"/>
<circle cx="88.5" cy="14.5" r="3.5" fill="black"/>
<circle cx="103.5" cy="16.5" r="3.5" fill="black"/>
<circle cx="113.5" cy="48.5" r="3.5" fill="black"/>
<circle cx="100.5" cy="34.5" r="3.5" fill="black"/>
<circle cx="28.5" cy="52.5" r="10.5" fill="black"/>
<circle cx="68" cy="85" r="14" fill="black"/>
<circle cx="52" cy="23" r="6" fill="black"/>
</svg>
